<?xml version="1.0" encoding="UTF-8" standalone="no"?>
<!-- Created with Inkscape (http://www.inkscape.org/) -->

<svg
   width="41.219147mm"
   height="41.218998mm"
   viewBox="0 0 41.219147 41.218998"
   version="1.1"
   id="svg1"
   xmlns:inkscape="http://www.inkscape.org/namespaces/inkscape"
   xmlns:sodipodi="http://sodipodi.sourceforge.net/DTD/sodipodi-0.dtd"
   xmlns="http://www.w3.org/2000/svg"
   xmlns:svg="http://www.w3.org/2000/svg">
  <sodipodi:namedview
     id="namedview1"
     pagecolor="#ffffff"
     bordercolor="#000000"
     borderopacity="0.25"
     inkscape:showpageshadow="2"
     inkscape:pageopacity="0.0"
     inkscape:pagecheckerboard="0"
     inkscape:deskcolor="#d1d1d1"
     inkscape:document-units="mm"
     inkscape:zoom="0.61358135"
     inkscape:cx="396.85039"
     inkscape:cy="560.64286"
     inkscape:window-width="2560"
     inkscape:window-height="1331"
     inkscape:window-x="2560"
     inkscape:window-y="34"
     inkscape:window-maximized="1"
     inkscape:current-layer="layer1" />
  <defs
     id="defs1">
    <linearGradient
       x1="0"
       y1="0"
       x2="1"
       y2="0"
       gradientUnits="userSpaceOnUse"
       gradientTransform="matrix(9.7976646,38.947966,-38.947966,9.7976646,97.118395,108.30291)"
       spreadMethod="pad"
       id="linearGradient72">
      <stop
         style="stop-opacity:1;stop-color:#fff33b"
         offset="0"
         id="stop66" />
      <stop
         style="stop-opacity:1;stop-color:#fdc70c"
         offset="0.13312686"
         id="stop67" />
      <stop
         style="stop-opacity:1;stop-color:#fdc70c"
         offset="0.280899"
         id="stop68" />
      <stop
         style="stop-opacity:1;stop-color:#f3903f"
         offset="0.469614"
         id="stop69" />
      <stop
         style="stop-opacity:1;stop-color:#ed683d"
         offset="0.731726"
         id="stop70" />
      <stop
         style="stop-opacity:1;stop-color:#e93e39"
         offset="0.833333"
         id="stop71" />
      <stop
         style="stop-opacity:1;stop-color:#e93e39"
         offset="1"
         id="stop72" />
    </linearGradient>
    <clipPath
       clipPathUnits="userSpaceOnUse"
       id="clipPath74">
      <path
         d="M 0,494.975 H 520.474 V 0 H 0 Z"
         transform="translate(-326.06531,-330.52481)"
         id="path74" />
    </clipPath>
    <clipPath
       clipPathUnits="userSpaceOnUse"
       id="clipPath76">
      <path
         d="M 0,494.975 H 520.474 V 0 H 0 Z"
         transform="translate(-386.84591,-295.1688)"
         id="path76" />
    </clipPath>
    <clipPath
       clipPathUnits="userSpaceOnUse"
       id="clipPath78">
      <path
         d="M 0,494.975 H 520.474 V 0 H 0 Z"
         transform="translate(-361.17341,-295.1688)"
         id="path78" />
    </clipPath>
    <clipPath
       clipPathUnits="userSpaceOnUse"
       id="clipPath80">
      <path
         d="M 0,494.975 H 520.474 V 0 H 0 Z"
         transform="translate(-386.84591,-320.04111)"
         id="path80" />
    </clipPath>
    <clipPath
       clipPathUnits="userSpaceOnUse"
       id="clipPath82">
      <path
         d="M 0,494.975 H 520.474 V 0 H 0 Z"
         transform="translate(-361.17341,-320.04111)"
         id="path82" />
    </clipPath>
    <clipPath
       clipPathUnits="userSpaceOnUse"
       id="clipPath85">
      <path
         d="M 0,494.975 H 520.474 V 0 H 0 Z"
         transform="matrix(1.3333333,0,0,-1.3333333,0,659.96667)"
         id="path85" />
    </clipPath>
    <clipPath
       clipPathUnits="userSpaceOnUse"
       id="clipPath83">
      <path
         d="M 323.958,331.976 H 426.755 V 245.842 H 323.958 Z"
         transform="translate(-415.16731,-331.97571)"
         id="path83" />
    </clipPath>
    <clipPath
       clipPathUnits="userSpaceOnUse"
       id="clipPath88">
      <path
         d="M 0,494.975 H 520.474 V 0 H 0 Z"
         transform="matrix(1.3333333,0,0,-1.3333333,0,659.96667)"
         id="path88" />
    </clipPath>
    <clipPath
       clipPathUnits="userSpaceOnUse"
       id="clipPath86">
      <path
         d="m 333.987,342.058 h 30.702 v -30.702 h -30.702 z"
         transform="translate(-364.68901,-326.70651)"
         id="path86" />
    </clipPath>
    <clipPath
       clipPathUnits="userSpaceOnUse"
       id="clipPath91">
      <path
         d="M 0,494.975 H 520.474 V 0 H 0 Z"
         transform="matrix(1.3333333,0,0,-1.3333333,0,659.96667)"
         id="path91" />
    </clipPath>
    <clipPath
       clipPathUnits="userSpaceOnUse"
       id="clipPath89">
      <path
         d="m 359.06,315.193 h 8.699 v -8.699 h -8.699 z"
         transform="translate(-367.75921,-310.84381)"
         id="path89" />
    </clipPath>
  </defs>
  <g
     inkscape:label="Layer 1"
     inkscape:groupmode="layer"
     id="layer1"
     transform="translate(-81.407625,-107.16736)">
    <path
       id="path72"
       d="m 85.119912,116.92712 c -5.99193,9.33239 -3.284361,21.75475 6.047669,27.74703 v 0 c 9.332029,5.99193 21.754749,3.28436 27.747029,-6.04731 v 0 c 5.99193,-9.33239 3.28436,-21.7551 -6.04767,-27.74703 v 0 c -3.35809,-2.15653 -7.11588,-3.18629 -10.83063,-3.18594 v 0 c -6.608584,3.5e-4 -13.080292,3.25967 -16.916398,9.23325"
       style="fill:url(#linearGradient72);stroke:none;stroke-width:0.352778" />
    <path
       id="path73"
       d="M 0,0 C 16.986,26.453 52.2,34.128 78.653,17.143 105.106,0.157 112.781,-35.057 95.795,-61.51 78.81,-87.963 43.596,-95.638 17.143,-78.653 -9.311,-61.667 -16.986,-26.453 0,0 Z"
       style="fill:none;stroke:#231f20;stroke-width:3;stroke-linecap:butt;stroke-linejoin:miter;stroke-miterlimit:10;stroke-dasharray:none;stroke-opacity:1"
       transform="matrix(0.35277776,0,0,-0.35277776,85.120022,116.92718)"
       clip-path="url(#clipPath74)" />
    <path
       id="path75"
       d="m 0,0 -2.582,-7.39 -7.746,-0.089 5.787,-4.63 -2.226,-7.745 6.945,4.54 6.856,-4.63 -2.226,7.924 5.698,4.452 -7.39,0.267 z"
       style="fill:#ef4136;fill-opacity:1;fill-rule:nonzero;stroke:none"
       transform="matrix(0.35277776,0,0,-0.35277776,106.56207,129.4)"
       clip-path="url(#clipPath76)" />
    <path
       id="path77"
       d="m 0,0 -2.582,-7.39 -7.746,-0.089 5.787,-4.63 -2.226,-7.745 6.945,4.54 6.856,-4.63 -2.226,7.924 5.698,4.452 -7.39,0.267 z"
       style="fill:#ef4136;fill-opacity:1;fill-rule:nonzero;stroke:none"
       transform="matrix(0.35277776,0,0,-0.35277776,97.505379,129.4)"
       clip-path="url(#clipPath78)" />
    <path
       id="path79"
       d="m 0,0 -2.582,-7.39 -7.746,-0.089 5.787,-4.63 -2.226,-7.745 6.945,4.54 6.856,-4.63 -2.226,7.924 5.698,4.452 -7.39,0.267 z"
       style="fill:#ef4136;fill-opacity:1;fill-rule:nonzero;stroke:none"
       transform="matrix(0.35277776,0,0,-0.35277776,106.56207,120.6256)"
       clip-path="url(#clipPath80)" />
    <path
       id="path81"
       d="m 0,0 -2.582,-7.39 -7.746,-0.089 5.787,-4.63 -2.226,-7.745 6.945,4.54 6.856,-4.63 -2.226,7.924 5.698,4.452 -7.39,0.267 z"
       style="fill:#ef4136;fill-opacity:1;fill-rule:nonzero;stroke:none"
       transform="matrix(0.35277776,0,0,-0.35277776,97.505379,120.6256)"
       clip-path="url(#clipPath82)" />
    <g
       opacity="0.300003"
       id="g84"
       clip-path="url(#clipPath85)"
       transform="matrix(0.26458333,0,0,0.26458333,-29.908568,58.912811)">
      <path
         d="m 0,0 c 4.961,-18.012 0.311,-38.132 -13.861,-52.115 -20.697,-20.421 -53.856,-20.02 -74.063,0.897 -1.168,1.209 -2.256,2.465 -3.286,3.753 2.282,-8.285 6.586,-16.126 12.952,-22.715 20.207,-20.917 53.366,-21.318 74.063,-0.897 C 15.299,-51.842 16.778,-20.999 0,0"
         style="fill:#ffffff;fill-opacity:1;fill-rule:nonzero;stroke:none"
         transform="matrix(1.3333333,0,0,-1.3333333,553.5564,217.3324)"
         clip-path="url(#clipPath83)"
         id="path84" />
    </g>
    <g
       opacity="0.5"
       id="g87"
       clip-path="url(#clipPath88)"
       transform="matrix(0.26458333,0,0,0.26458333,-29.908568,58.912811)">
      <path
         d="m 0,0 c 0,-8.478 -6.873,-15.351 -15.351,-15.351 -8.478,0 -15.351,6.873 -15.351,15.351 0,8.478 6.873,15.351 15.351,15.351 C -6.873,15.351 0,8.478 0,0"
         style="fill:#ffffff;fill-opacity:1;fill-rule:nonzero;stroke:none"
         transform="matrix(1.3333333,0,0,-1.3333333,486.252,224.358)"
         clip-path="url(#clipPath86)"
         id="path87" />
    </g>
    <g
       opacity="0.5"
       id="g90"
       clip-path="url(#clipPath91)"
       transform="matrix(0.26458333,0,0,0.26458333,-29.908568,58.912811)">
      <path
         d="m 0,0 c 0,-2.402 -1.947,-4.349 -4.349,-4.349 -2.403,0 -4.35,1.947 -4.35,4.349 0,2.402 1.947,4.349 4.35,4.349 C -1.947,4.349 0,2.402 0,0"
         style="fill:#ffffff;fill-opacity:1;fill-rule:nonzero;stroke:none"
         transform="matrix(1.3333333,0,0,-1.3333333,490.3456,245.50827)"
         clip-path="url(#clipPath89)"
         id="path90" />
    </g>
  </g>
</svg>
